{"title":"Indiana Jones 2 Temple Of Doom (1984)(DIVX)(NL SUBS) 2Lions-Team","uid":5876217,"size":1467672283,"categoryP":"video","categoryS":"movies","magnet":"?xt=urn:btih:199493e273c2d3679a4c9c3b9687dbab083eeff2&amp;dn=Indiana+Jones+2+Temple+Of+Doom+%281984%29%28DIVX%29%28NL+SUBS%29+2Lions-Team&amp;tr=udp%3A%2F%2Ftracker.openbittorrent.com%3A80&amp;tr=udp%3A%2F%2Fopen.demonii.com%3A1337&amp;tr=udp%3A%2F%2Ftracker.coppersurfer.tk%3A6969&amp;tr=udp%3A%2F%2Fexodus.desync.com%3A6969","seeders":2,"leechers":0,"uploader":"Pioen","files":-1,"time":1286651098,"description":"Indiana Jones 2 Temple Of Doom (1984)       \n \nVerenigde Staten\nActie / Avontuur\n118 minuten\n\ngeregisseerd door Steven Spielberg\nmet Harrison Ford, Kate Capshaw en Ke Huy Quan\n\nIndiana Jones, Short Round en de betoverende nachtclubzangeres Willie Scott, worden door het noodlot in eenzelfde avontuur samengebracht. Op weg naar India ontsnappen ze op het nippertje aan de dood. Later belanden ze in een kinderloos dorp. Indy belooft het dorpshoofd de heilige Sankarasteen te zullen vinden, die het dorp zijn vruchtbaarheid moet teruggeven.\n\n\n\nRegie: Steven Spielberg \nMet: Harrison Ford (Dr. Henry &quot;Indiana&quot; Jones jr.), Kate Capshaw (Willie Scott), Lorraine Doyle (Dancer), Ke Huy Quan (Short round, age 12), Dan Aykroyd (Weber), Amrish Puri (Mola Ram), Roshan Seth (Chattar Lal), Philip Stone (Captain Blumburtt), Roy Chiao (Lao Che), Bhasker Patel (Temple guard) \nSchrijvers: Verhaal: George Lucas; Script: Willard Huyck, Gloria Katz; Muziek: John Williams \n\nDit is het fenomenale vervolg op &quot;Raiders of the lost ark&quot; waarin Steven Spielberg zich weer van z'n beste kant laat zien. Wat betreft actie, spanning en mooie plaatjes overtreft het deel 1 (en die was al een spektakelstuk van hoog niveau).\nIndiana Jones begeeft zich deze keer in Shanghai om een diamant in handen te krijgen. Die opdracht is echter maar een opstapje voor het grotere werk die Indi, zangeres Willie (Kate Capshaw) en Indi's hulpje Short Round (Jonathan Ke Quan) te verduren krijgen. Het vliegtuig waarmee het drietal ontsnapt, stort neer in de Indiase bergen en ze komen terecht in een dorpje waar het stammenhoofd Indi ziet als hun verlosser die god Shiva heeft gestuurd. De oude man vraagt hem hun kinderen en een machtige steen terug te halen uit het paleis van de Maharadja. Wat volgt is een wervelend avontuur dat zo energiek is dat je als kijker de kans niet krijgt om adem te halen.\nSpielberg en z'n productieteam hebben meesterlijk werk afgeleverd. De actiescÃƒÂ¨nes volgen elkaar in rap tempo op, vloeien geniaal in elkaar over en zijn ook zeer goed en duidelijk in beeld gebracht. Er zijn scÃƒÂ¨nes die je niet snel zal vergeten zoals het diner bij de maharadja waar de helden slangen, kevers, ogensoep en apenhersens opgediend krijgen of de achtervolgingsscene met mijnwagentjes in een mijn onder constructie. Harrison Ford met z'n droge humor is in topvorm, het Chinese jochie is een supersidekick, helaas is Kate Capshaw als verwend zangeres enigszins irritant. Dit is Topvermaak met een grote, koeienletter T.\n\n\nEnglish\n\nStoryline\nSet in 1935, a professor, archaeologist, and legendary hero by the name of Indiana Jones is back in action in his newest adventure. But this time he teams up with a night club singer named Wilhelmina &quot;Willie&quot; Scott and a twelve-year-old boy named Short Round. They end up in an Indian small distressed village, where the people believe that evil spirits have taken all their children away after a sacred precious stone was stolen! They also discovered the great mysterious terror surrounding a booby-trapped temple known as the Temple of Doom! Thuggee is beginning to attempt to rise once more, believing that with the power of all five Sankara stones they can rule the world! Now, it's all up to Indiana to put an end to the Thuggee campaign, rescue the lost children, win the girl and conquer the Temple of Doom. \n\n\nSpotinformatie \nCategorie : Beeld \nFormaat : DivX \nBron : Retail\n \n\nAudio ...: Engels\nSubs.....: Nederlands (srt) (instelbaar)\nThanks ..: cjdijk\n\nFormat                           : AVI\nFormat/Info                      : Audio Video Interleave\nFile size                        : 699 MiB\nDuration                         : 54mn 9s\nOverall bit rate                 : 1 804 Kbps\nWriting application              : VirtualDubMod 1.5.4.1 (build 2178/release)\nWriting library                  : VirtualDubMod build 2178/release\n\nVideo\nID                               : 0\nFormat                           : MPEG-4 Visual\nFormat profile                   : Simple@L3\nFormat settings, BVOP            : Yes\nFormat settings, QPel            : No\nFormat settings, GMC             : No warppoints\nFormat settings, Matrix          : Custom\nCodec ID                         : XVID\nCodec ID/Hint                    : XviD\nDuration                         : 54mn 9s\nBit rate                         : 1 349 Kbps\nWidth                            : 720 pixels\nHeight                           : 304 pixels\nDisplay aspect ratio             : 2.35\nFrame rate                       : 25.000 fps\nResolution                       : 24 bits\nColorimetry                      : 4:2:0\nScan type                        : Progressive\nBits/(Pixel*Frame)               : 0.247\nStream size                      : 523 MiB (75%)\nWriting library                  : XviD 0.0.09 (UTC 2003-03-25)\n\nAudio\nID                               : 1\nFormat                           : AC-3\nFormat/Info                      : Audio Coding 3\nCodec ID                         : 2000\nDuration                         : 54mn 9s\nBit rate mode                    : Constant\nBit rate                         : 448 Kbps\nChannel(s)                       : 6 channels\nChannel positions                : Front: L C R, Surround: L R, LFE\nSampling rate                    : 48.0 KHz\nVideo delay                      : 8ms\nStream size                      : 174 MiB (25%)\nAlignment                        : Split accross interleaves\nInterleave, duration             : 96 ms (2.40 video frames)\nInterleave, preload duration     : 96 ms\nLanguage                         : English / English\n\n \nGenre : Actie\nAvontuur\n\n\nWeblink : &lt;a href=&quot; http://www.moviemeter.nl/film/318&quot; rel=&quot;nofollow&quot; target=&quot;_NEW&quot;&gt; http://www.moviemeter.nl/film/318&lt;/a&gt; \nWeblink : &lt;a href=&quot; http://www.imdb.com/title/tt0087469&quot; rel=&quot;nofollow&quot; target=&quot;_NEW&quot;&gt; http://www.imdb.com/title/tt0087469&lt;/a&gt;\n  \n*****************************************\n\nBrought to you by \n2Lions Team\n\nmeer zien??\nKom dan eens kijken op ons Forum \n                   &lt;a href=&quot;\nhttp://www.2lions-site.nl&quot; rel=&quot;nofollow&quot; target=&quot;_NEW&quot;&gt;\nhttp://www.2lions-site.nl&lt;/a&gt;  \n\n2Lions the site to be for all your Dutch MOVIES and more\n\n******************************************\n\n\nDON T HIT AND RUN Niet gelijk afhaken als de FILM binnen is blijf seeden. \n\nDon`t quit after you finished the download, but keep seeding\n\n\nThere are fake torrents from uploaders who use our team name.\nThose are not ours, or members from our team.\nWe 2Lions-Team are not responsible for the fake posts on our name\n\nWij 2Lions-Team zijn niet verantwoordelijk voor die zieke FAKE posten die op onze naam worden gedaan\n\nPlease check our site !!!\nTo the fakers Get a Live\n \n \n \n\n \n \n \n","torrent":{"xt":"urn:btih:199493e273c2d3679a4c9c3b9687dbab083eeff2","amp;dn":"Indiana+Jones+2+Temple+Of+Doom+%281984%29%28DIVX%29%28NL+SUBS%29+2Lions-Team","amp;tr":["udp%3A%2F%2Ftracker.openbittorrent.com%3A80","udp%3A%2F%2Fopen.demonii.com%3A1337","udp%3A%2F%2Ftracker.coppersurfer.tk%3A6969","udp%3A%2F%2Fexodus.desync.com%3A6969"],"infoHash":"199493e273c2d3679a4c9c3b9687dbab083eeff2","infoHashBuffer":{"type":"Buffer","data":[25,148,147,226,115,194,211,103,154,76,156,59,150,135,219,171,8,62,239,242]},"announce":[],"urlList":[]}}